<svg width="31" height="29" viewBox="0 0 31 29" fill="none" xmlns="http://www.w3.org/2000/svg">
<line x1="7.59262" y1="7.78271" x2="22.7778" y2="7.78271" stroke="#252B42"/>
<line x1="7.59262" y1="10.543" x2="22.7778" y2="10.543" stroke="#252B42"/>
<line x1="7.59262" y1="13.3037" x2="22.7778" y2="13.3037" stroke="#252B42"/>
<line x1="7.59262" y1="16.0654" x2="22.7778" y2="16.0654" stroke="#252B42"/>
<path fill-rule="evenodd" clip-rule="evenodd" d="M30.3483 12.4373C30.3483 5.57932 23.5362 0 15.1631 0C11.8946 0 8.8639 0.850193 6.38346 2.29476C7.26028 2.58756 8.09646 2.94564 8.88294 3.36158C10.7484 2.55245 12.889 2.09198 15.1631 2.09198C22.3827 2.09198 28.2563 6.73298 28.2563 12.4373C28.2563 15.9111 26.0582 19.1365 22.3764 21.0659L21.7152 21.4124L21.828 22.1505C22.0694 23.7295 22.5531 25.0973 23.0134 26.1261C20.8194 25.6514 17.3319 24.6805 14.7269 22.9305L14.4892 22.7708L14.2034 22.7545C13.3287 22.7043 12.4784 22.5856 11.6606 22.4055C10.9824 22.9875 10.2435 23.5098 9.45515 23.968C10.8319 24.4241 12.2938 24.715 13.7996 24.8246C18.2793 27.7143 24.5645 28.5474 24.8344 28.5821L27.1771 28.8824L25.8264 26.9475C25.8128 26.928 24.5773 25.1194 24.026 22.5421C27.9997 20.2076 30.3483 16.4784 30.3483 12.4373ZM4.18625 3.85169C3.11565 4.76951 2.21442 5.82093 1.5241 6.97192H4.05009C4.75227 6.08376 5.62017 5.28541 6.61933 4.6041C5.84912 4.29226 5.03494 4.03896 4.18625 3.85169ZM2.82542 8.97192H0.577625L0.552711 9.04295H2.79374C2.80419 9.01924 2.81475 8.99556 2.82542 8.97192ZM2.18839 11.043C2.18434 11.0666 2.18039 11.0903 2.17654 11.114H0.0633049L0.0727711 11.043H2.18839ZM2.10416 13.1843C2.10201 13.1609 2.09996 13.1374 2.09801 13.114H-7.62939e-06C0.00152397 13.1374 0.00313377 13.1609 0.00482368 13.1843H2.10416ZM2.54301 15.1843C3.52729 17.9837 5.97562 20.3302 9.20728 21.645C8.50946 22.122 7.74733 22.5422 6.93234 22.8958C5.92594 22.3643 4.99173 21.7323 4.15118 21.0083C2.24358 19.3649 0.943476 17.357 0.348124 15.1843H2.54301Z" fill="#252B42"/>
</svg>
